<svg xmlns="http://www.w3.org/2000/svg" viewBox="0 0 512 512" role="img" aria-label="Proven Earth PE favicon">
  <title>Proven Earth favicon</title>
  <style>
    .pe { fill: #181818; }
    @media (prefers-color-scheme: dark) { .pe { fill: #ffffff; } }
  </style>
  <g class="pe" transform="translate(4.873 444.345) scale(0.527578 -0.527578)">
    <path d="M279 714Q392 714 450.0 655.0Q508 596 508 487Q508 417 484.0 360.5Q460 304 408.5 270.5Q357 237 275 237H240V0H59V714ZM268 566H240V385H258Q286 385 307.0 407.5Q328 430 328 485Q328 566 268 566Z" transform="translate(0,0)"/>
    <path d="M417 0H59V714H417V567H240V443H404V296H240V149H417Z" transform="translate(476,0)"/>
  </g>
</svg>
